<?xml version="1.0" encoding="utf-8"?>
<svg xmlns="http://www.w3.org/2000/svg" viewBox="0 0 1000 1000">
	<g fill="#666">
		<path d="m244.7 825.2l-13.3-248.6c-61.1 0-84.4 22.2-84.4 92.1 0 107.6 31.3 156.5 97.7 156.5"/>
		<path d="m755.3 825.2c66.4 0 97.7-48.8 97.7-156.5 0-69.9-23.3-92.1-84.4-92.1l-13.3 248.6"/>
	</g>
	<path d="m500 995c-169.8 0-299.7-102.5-299.7-328.6 0-203.7 115.4-284.2 299.7-284.2 185.4 0 299.7 80.5 299.7 284.2 0 226.1-129.9 328.6-299.7 328.6" fill="#ccc"/>
	<path d="m500 768.6c144.3 0 214.2-26.6 214.2-106.6 0-122.1-82.1-177.6-214.2-177.6s-214.2 55.5-214.2 177.6c0 79.9 69.9 106.6 214.2 106.6" fill="#333"/>
	<g fill="#0ff">
		<path d="m330.2 686.4c2.2-95.5 28.9-133.2 75.5-133.2s73.3 37.7 75.5 133.2l-35.5 2.2c-2.2-48.8-13.3-68.8-40-68.8-26.6 0-37.7 20-40 68.8l-35.5-2.2"/>
		<path d="m518.9 686.4c2.2-95.5 28.9-133.2 75.5-133.2s73.3 37.7 75.5 133.2l-35.5 2.2c-2.2-48.8-13.3-68.8-40-68.8-26.6 0-37.7 20-40 68.8l-35.5-2.2"/>
	</g>
	<path d="m500 900.7c22.2 0 41.1-7.8 41.1-26.6 0-13.3-7.8-16.7-41.1-16.7s-41.1 3.3-41.1 16.7c0 18.8 18.9 26.6 41.1 26.6" fill="#333"/>
</svg>
