<?xml version="1.0" encoding="utf-8"?>
<svg xmlns="http://www.w3.org/2000/svg" viewBox="0 0 1000 1000">
	<path d="m499.5 376.5c-188.7 0-323 135.4-323 323s134.3 323 323 323 323-135.4 323-323-134.3-323-323-323" fill="#29abe2"/>
	<g fill="#c63a8e">
		<path d="m321.9 629.8c-47.2 0-80.8 33.9-80.8 80.8 0 46.9 33.6 80.8 80.8 80.8 47.2 0 80.8-33.9 80.8-80.8 0-46.9-33.6-80.8-80.8-80.8"/>
		<path d="m677.1 629.8c-47.2 0-80.8 33.9-80.8 80.8 0 46.9 33.6 80.8 80.8 80.8 47.2 0 80.8-33.9 80.8-80.8 0-46.9-33.6-80.8-80.8-80.8"/>
	</g>
	<path d="m466.2 617.4c0-42.2-20-71-53.3-71s-54.4 28.9-54.4 71 21.1 71 54.4 71 53.3-28.9 53.3-71"/>
	<path d="m640.5 617.4c0-42.2-21.1-71-54.4-71-33.3 0-53.3 28.9-53.3 71s20 71 53.3 71c33.3 0 54.4-28.9 54.4-71"/>
	<path d="m499.5 897.1c97.7 0 161-54.4 172-144.3l-37.7-14.4c-20 57.7-68.8 83.2-134.3 83.2s-114.3-25.5-134.3-83.2l-37.7 14.4c11 89.9 74.3 144.3 172 144.3" fill="#42210b"/>
	<g fill="#fff">
		<path d="m381.8 608.5c0-10 5.5-16.6 14.4-16.6s14.4 6.7 14.4 16.6c0 10-5.5 16.7-14.4 16.7s-14.4-6.7-14.4-16.7"/>
		<path d="m556.1 608.5c0-10 5.5-16.6 14.4-16.6s13.3 6.7 13.3 16.6c0 10-4.4 16.7-13.3 16.7s-14.4-6.7-14.4-16.7"/>
	</g>
</svg>
