<svg xmlns="http://www.w3.org/2000/svg"><path d="m499.5-623.5c-188.7 0-323 135.4-323 323s134.3 323 323 323 323-135.4 323-323-134.3-323-323-323" fill="#fcee21"/><path d="m321.9-370.1c-47.2 0-80.8 33.9-80.8 80.8s33.6 80.8 80.8 80.8 80.8-33.9 80.8-80.8-33.6-80.8-80.8-80.8" fill="#ed1e79" opacity=".8"/><path d="m677.1-370.1c-47.2 0-80.8 33.9-80.8 80.8s33.6 80.8 80.8 80.8 80.8-33.9 80.8-80.8-33.6-80.8-80.8-80.8" fill="#ed1e79" opacity=".8"/><path d="m411.8-311.6c33.3 0 54.4-28.9 54.4-71s-21.1-71-54.4-71-53.3 28.9-53.3 71 20 71 53.3 71"/><path d="m587.2-311.6c33.3 0 53.3-28.9 53.3-71s-20-71-53.3-71-54.4 28.9-54.4 71 21.1 71 54.4 71"/><path d="m499.5-102.9c97.7 0 161-54.4 172-144.3l-37.7-14.4c-20 57.7-68.8 83.2-134.3 83.2s-114.3-25.5-134.3-83.2l-37.7 14.4c11 89.9 74.3 144.3 172 144.3" fill="#42210b"/><g fill="#fff"><path d="m428.5-374.9c-8.9 0-14.4-6.7-14.4-16.7s5.5-16.7 14.4-16.7 14.4 6.7 14.4 16.7-5.6 16.7-14.4 16.7"/><path d="m602.7-374.9c-8.9 0-13.3-6.7-13.3-16.7s4.4-16.7 13.3-16.7 14.4 6.7 14.4 16.7-5.5 16.7-14.4 16.7"/></g></svg>