<svg xmlns="http://www.w3.org/2000/svg"><path d="m696.2-236.8c15.5-44.4 22.2-88.8 24.4-133.2 47.7 0 68.8 13.3 68.8 57.7 0 48.9-42.2 75.5-93.2 75.5m-250.9-377.4c-177.6 0-277.5 69.9-277.5 184.3 0 269.7 112.1 384.1 277.5 384.1 96.6 0 182-35.5 224.2-124.3 127.7 0 188.7-68.8 188.7-148.7 0-66.6-45.5-122.1-135.4-122.1 0-108.9-98.8-173.3-277.5-173.3" fill="#f2ede7"/><path d="m445.3-321.1c147.6 0 220.9-35.5 257.5-97.7-22.2-67.7-118.8-117.7-257.5-117.7s-235.3 48.9-257.5 117.7c36.6 62.2 109.9 97.7 257.5 97.7" fill="#42210b"/><g fill="#c7b299"><path d="m521.9-427.7c-67.7 48.8-117.7 64.4-164.3 64.4-41.1 0-63.3-17.8-63.3-35.5 0-13.3 8.9-22.2 38.9-28.9-30-6.7-38.9-15.5-38.9-28.9 0-17.8 22.2-35.5 63.3-35.5 46.6 0 96.6 15.6 164.3 64.4"/><path d="m527.4-427.7c37.7-22.2 66.6-28.9 82.1-28.9 17.8 0 33.3 11.1 33.3 28.9s-15.5 28.9-33.3 28.9c-15.5 0-44.3-6.7-82.1-28.9"/></g></svg>