<svg xmlns="http://www.w3.org/2000/svg"><path d="m499.5 22.1c235.3 0 337.4-30 337.4-162.1 0-71-32.2-113.2-101-131 26.6-20 40-51.1 40-99.9 0-79.9-51.1-122.1-121-135.4 15.5-15.5 23.3-31.1 23.3-59.9 0-59.9-52.2-102.1-157.6-131-63.3 68.8-199.8 22.2-199.8 133.2 0 31.1 10 44.4 23.3 57.7-69.9 13.3-121 55.5-121 135.4 0 48.8 13.3 79.9 40 99.9-68.8 17.8-101 59.9-101 131 0 132.2 102.1 162.1 337.4 162.1" fill="#8c6239"/><path d="m330.8-308.6c1.1-95.5 25.5-133.2 72.1-133.2s72.1 37.7 73.3 133.2l-31.1 2.2c-2.2-52.2-15.5-73.3-42.2-73.3-26.6 0-38.9 21.1-41.1 73.3z"/><path d="m522.8-308.6c1.1-95.5 26.6-133.2 73.3-133.2s71 37.7 72.1 133.2l-31.1 2.2c-2.2-52.2-14.4-73.3-41.1-73.3s-40 21.1-42.2 73.3z"/><path d="m499.5-188.8c59.6 0 104.8 17.7 131.6 53.2 14.7-19.4 23.9-44.4 27.1-74.4h-317.4c3.1 30 12.4 55 27.1 74.4 26.8-35.5 72-53.2 131.6-53.2" fill="#42210b"/><path d="m499.5-83.3c59.6 0 104.8-17.2 131.6-52.7-26.9-35.5-72.1-52.7-131.6-52.7s-104.8 17.1-131.6 52.7c26.8 35.5 72 52.7 131.6 52.7" fill="#ed1e79"/></svg>